<svg width="40" height="41" viewBox="0 0 40 41" fill="none" xmlns="http://www.w3.org/2000/svg">
<rect x="1" y="1.73914" width="38" height="38" rx="19" stroke="black" stroke-width="2"/>
<path d="M7 10.0349C7 9.4614 7.48712 9 8.0926 9H10.164C11.1655 9 12.0533 9.55196 12.4675 10.3799H31.1783C32.3756 10.3799 33.2497 11.4579 32.9356 12.5532L31.069 19.1206C30.6821 20.4746 29.3846 21.419 27.9051 21.419H14.7711L15.0169 22.648C15.1171 23.1352 15.5678 23.4888 16.0913 23.4888H29.2162C29.8217 23.4888 30.3088 23.9502 30.3088 24.5237C30.3088 25.0973 29.8217 25.5587 29.2162 25.5587H16.0913C14.5162 25.5587 13.1641 24.4979 12.8727 23.0361L10.5236 11.3501C10.4918 11.1863 10.3415 11.0698 10.164 11.0698H8.0926C7.48712 11.0698 7 10.6084 7 10.0349ZM12.8272 29.0084C12.8272 28.7366 12.8837 28.4674 12.9935 28.2163C13.1033 27.9652 13.2643 27.737 13.4672 27.5448C13.6701 27.3526 13.911 27.2001 14.1762 27.0961C14.4413 26.9921 14.7254 26.9385 15.0124 26.9385C15.2994 26.9385 15.5835 26.9921 15.8486 27.0961C16.1137 27.2001 16.3546 27.3526 16.5576 27.5448C16.7605 27.737 16.9214 27.9652 17.0312 28.2163C17.1411 28.4674 17.1976 28.7366 17.1976 29.0084C17.1976 29.2802 17.1411 29.5493 17.0312 29.8005C16.9214 30.0516 16.7605 30.2798 16.5576 30.472C16.3546 30.6642 16.1137 30.8166 15.8486 30.9207C15.5835 31.0247 15.2994 31.0782 15.0124 31.0782C14.7254 31.0782 14.4413 31.0247 14.1762 30.9207C13.911 30.8166 13.6701 30.6642 13.4672 30.472C13.2643 30.2798 13.1033 30.0516 12.9935 29.8005C12.8837 29.5493 12.8272 29.2802 12.8272 29.0084ZM28.1236 26.9385C28.7031 26.9385 29.2589 27.1566 29.6687 27.5448C30.0785 27.933 30.3088 28.4594 30.3088 29.0084C30.3088 29.5573 30.0785 30.0838 29.6687 30.472C29.2589 30.8601 28.7031 31.0782 28.1236 31.0782C27.544 31.0782 26.9882 30.8601 26.5784 30.472C26.1686 30.0838 25.9384 29.5573 25.9384 29.0084C25.9384 28.4594 26.1686 27.933 26.5784 27.5448C26.9882 27.1566 27.544 26.9385 28.1236 26.9385Z" fill="black"/>
</svg>
