<svg width="50" height="50" viewBox="0 0 50 50" fill="none" xmlns="http://www.w3.org/2000/svg">
<path d="M4.6875 25C4.6875 19.6128 6.82756 14.4462 10.6369 10.6369C14.4462 6.82756 19.6128 4.6875 25 4.6875C30.3872 4.6875 35.5538 6.82756 39.3631 10.6369C43.1724 14.4462 45.3125 19.6128 45.3125 25C45.3125 30.3872 43.1724 35.5538 39.3631 39.3631C35.5538 43.1724 30.3872 45.3125 25 45.3125C19.6128 45.3125 14.4462 43.1724 10.6369 39.3631C6.82756 35.5538 4.6875 30.3872 4.6875 25ZM17.6344 9.46875C15.3546 10.5529 13.3405 12.1243 11.7344 14.0719L13.7562 20.6469L16.9 21.6938L23.4375 16.725V13.3375L17.6344 9.46875ZM7.925 26.9812C8.2375 29.6844 9.175 32.2 10.5906 34.3719H16.5406L18.525 32.3875L15.9531 24.6688L12.7531 23.6031L7.925 26.9812ZM21.5188 41.8312C23.8155 42.304 26.1845 42.304 28.4813 41.8312L30.95 36.2812L29.0406 34.375H20.9594L19.0531 36.2812L21.5188 41.8344V41.8312ZM39.4062 34.375C40.7812 32.2687 41.7063 29.8438 42.0438 27.2344L37.2188 23.6156L34.0469 24.6719L31.475 32.3906L33.4594 34.375H39.4062ZM38.225 14.0219C36.6256 12.0959 34.6262 10.5412 32.3656 9.46563L26.5625 13.3375V16.725L33.1 21.6938L36.2375 20.65L38.225 14.0219Z" fill="black"/>
</svg>
