<svg width="50" height="50" viewBox="0 0 50 50" fill="none" xmlns="http://www.w3.org/2000/svg">
<path d="M43.75 27.0833C43.75 36.2885 35.3552 43.75 25 43.75C14.6448 43.75 6.25 36.2885 6.25 27.0833M15.625 12.6458C18.3833 11.2292 21.5844 10.4167 25 10.4167C28.4156 10.4167 31.6167 11.2292 34.375 12.6458" stroke="black" stroke-width="4" stroke-linecap="round"/>
<path d="M6.25 27.0833V8.84167C6.25 7.03854 8.38542 6.08646 9.72604 7.29271L15.625 12.5969M43.75 27.0833V8.84167C43.75 7.03854 41.6146 6.08646 40.274 7.29271L34.375 12.5969" stroke="black" stroke-width="4" stroke-linecap="round" stroke-linejoin="round"/>
<path d="M31.2501 25C32.4007 25 33.3334 24.0673 33.3334 22.9167C33.3334 21.7661 32.4007 20.8333 31.2501 20.8333C30.0995 20.8333 29.1667 21.7661 29.1667 22.9167C29.1667 24.0673 30.0995 25 31.2501 25Z" fill="black"/>
<path d="M18.7501 25C19.9007 25 20.8334 24.0673 20.8334 22.9167C20.8334 21.7661 19.9007 20.8333 18.7501 20.8333C17.5995 20.8333 16.6667 21.7661 16.6667 22.9167C16.6667 24.0673 17.5995 25 18.7501 25Z" fill="black"/>
<path d="M25.0001 31.25C26.1507 31.25 27.0834 30.3173 27.0834 29.1667C27.0834 28.0161 26.1507 27.0833 25.0001 27.0833C23.8495 27.0833 22.9167 28.0161 22.9167 29.1667C22.9167 30.3173 23.8495 31.25 25.0001 31.25Z" fill="black"/>
<path d="M16.6667 31.25L4.16675 32.2917M19.7917 36.4583L7.29175 42.7083M33.3334 31.25L45.8334 32.2917M30.2084 36.4583L42.7084 42.7083" stroke="black" stroke-width="4" stroke-linecap="round" stroke-linejoin="round"/>
</svg>
