<svg width="147" height="32" viewBox="0 0 147 32" fill="none" xmlns="http://www.w3.org/2000/svg">
<path d="M12.4 24H0.24V1.6H2.896V23.68H12.4V24ZM16.206 16.192C16.206 18.8373 16.6647 20.7787 17.582 22.016C18.5207 23.2533 19.7473 23.872 21.262 23.872C23.3953 23.872 25.294 23.552 26.958 22.912L27.054 23.136C25.3473 23.7973 23.4167 24.128 21.262 24.128C19.1287 24.128 17.39 23.488 16.046 22.208C14.702 20.928 14.03 18.9547 14.03 16.288C14.03 13.6213 14.734 11.552 16.142 10.08C17.55 8.608 19.342 7.872 21.518 7.872C23.2673 7.872 24.7393 8.39467 25.934 9.44C27.1287 10.4853 27.726 12.032 27.726 14.08C27.726 14.1867 27.726 14.2933 27.726 14.4H16.302C16.238 14.976 16.206 15.5733 16.206 16.192ZM25.55 14.144C25.5287 12.096 25.134 10.5813 24.366 9.6C23.598 8.61867 22.606 8.128 21.39 8.128C20.174 8.128 19.086 8.66133 18.126 9.728C17.1873 10.7947 16.59 12.2667 16.334 14.144H25.55ZM32.294 24C31.4193 24 30.7473 23.808 30.278 23.424C29.83 23.04 29.5953 22.656 29.574 22.272L29.542 21.728V8H31.782V21.728C31.782 22.3467 31.8993 22.8267 32.134 23.168C32.39 23.488 32.6353 23.6587 32.87 23.68L33.254 23.744H34.246V24H32.294ZM29.734 4.416C29.478 4.16 29.35 3.84 29.35 3.456C29.35 3.072 29.478 2.752 29.734 2.496C29.99 2.21866 30.31 2.08 30.694 2.08C31.078 2.08 31.398 2.21866 31.654 2.496C31.9313 2.752 32.07 3.072 32.07 3.456C32.07 3.84 31.9313 4.16 31.654 4.416C31.398 4.672 31.078 4.8 30.694 4.8C30.31 4.8 29.99 4.672 29.734 4.416ZM42.7055 8.128C41.1908 8.128 39.9215 8.85333 38.8975 10.304C37.8948 11.7547 37.3935 13.76 37.3935 16.32C37.3935 18.88 37.8522 20.7787 38.7695 22.016C39.7082 23.2533 40.9348 23.872 42.4495 23.872C44.3482 23.872 46.0335 23.552 47.5055 22.912L47.6015 23.136C46.0868 23.7973 44.3162 24.128 42.2895 24.128C40.2628 24.128 38.5775 23.488 37.2335 22.208C35.8895 20.928 35.2175 18.9547 35.2175 16.288C35.2175 13.6213 35.9215 11.552 37.3295 10.08C38.7375 8.608 40.5295 7.872 42.7055 7.872C43.9215 7.872 45.0415 8.14933 46.0655 8.704C47.1108 9.25867 47.8788 10.1013 48.3695 11.232H46.3215C46.0015 10.1867 45.5108 9.408 44.8495 8.896C44.2095 8.384 43.4948 8.128 42.7055 8.128ZM64.0638 24C63.1891 24 62.5171 23.808 62.0478 23.424C61.5998 23.04 61.3651 22.656 61.3438 22.272L61.3118 21.728V11.68C61.3118 9.99467 60.8638 8.91733 59.9678 8.448C59.5411 8.23467 58.9971 8.128 58.3358 8.128C57.0131 8.128 55.8184 8.672 54.7518 9.76C53.7064 10.8267 53.1838 11.7867 53.1838 12.64V24H50.9438V0.0319996H53.1838V11.648C53.5251 10.7307 54.1758 9.87733 55.1358 9.088C56.0958 8.27733 57.1731 7.872 58.3678 7.872C60.4371 7.872 61.8131 8.23467 62.4958 8.96C63.1998 9.664 63.5518 10.5813 63.5518 11.712V21.728C63.5518 22.3467 63.6691 22.8267 63.9038 23.168C64.1598 23.488 64.4051 23.6587 64.6398 23.68L65.0238 23.744H66.0158V24H64.0638ZM68.245 8.256V8H68.917V4.8H71.157V8H76.053V8.256H71.157V19.904C71.157 21.2907 71.3063 22.2933 71.605 22.912C71.925 23.5307 72.5757 23.84 73.557 23.84C74.5597 23.84 75.573 23.6373 76.597 23.232L76.693 23.488C75.6263 23.8933 74.3997 24.096 73.013 24.096C71.6477 24.096 70.6237 23.8187 69.941 23.264C69.2583 22.688 68.917 21.5573 68.917 19.872V8.256H68.245ZM81.3878 24C80.5131 24 79.8411 23.808 79.3718 23.424C78.9238 23.04 78.6891 22.656 78.6678 22.272L78.6358 21.728V8H80.8758V21.728C80.8758 22.3467 80.9931 22.8267 81.2278 23.168C81.4838 23.488 81.7291 23.6587 81.9638 23.68L82.3478 23.744H83.3398V24H81.3878ZM78.8278 4.416C78.5718 4.16 78.4438 3.84 78.4438 3.456C78.4438 3.072 78.5718 2.752 78.8278 2.496C79.0838 2.21866 79.4038 2.08 79.7878 2.08C80.1718 2.08 80.4918 2.21866 80.7478 2.496C81.0251 2.752 81.1638 3.072 81.1638 3.456C81.1638 3.84 81.0251 4.16 80.7478 4.416C80.4918 4.672 80.1718 4.8 79.7878 4.8C79.4038 4.8 79.0838 4.672 78.8278 4.416ZM85.12 16.576C85.12 13.8027 85.792 11.6587 87.136 10.144C88.48 8.62933 90.496 7.872 93.184 7.872C95.168 7.872 97.184 8.224 99.232 8.928V24.384C99.2107 29.4613 96.992 32 92.576 32C90.144 32 88.064 31.2107 86.336 29.632L86.56 29.44C88.3947 30.976 90.4 31.744 92.576 31.744C95.52 31.744 96.992 29.2907 96.992 24.384V21.216C96.5867 21.9627 95.9147 22.624 94.976 23.2C94.0373 23.776 92.928 24.064 91.648 24.064C87.296 23.9573 85.12 21.4613 85.12 16.576ZM91.68 23.808C93.1093 23.808 94.336 23.424 95.36 22.656C96.384 21.888 96.928 21.1307 96.992 20.384V9.088C95.456 8.448 94.1547 8.128 93.088 8.128C91.1893 8.128 89.76 8.87467 88.8 10.368C87.84 11.84 87.36 13.9093 87.36 16.576C87.36 21.3973 88.8 23.808 91.68 23.808ZM105.778 -1.90735e-06V15.936L112.818 8H113.138L107.922 13.888L114.802 24H112.562L106.641 15.296L105.778 16.288V24H103.538V-1.90735e-06H105.778ZM118.081 16.192C118.081 18.8373 118.54 20.7787 119.457 22.016C120.396 23.2533 121.622 23.872 123.137 23.872C125.27 23.872 127.169 23.552 128.833 22.912L128.929 23.136C127.222 23.7973 125.292 24.128 123.137 24.128C121.004 24.128 119.265 23.488 117.921 22.208C116.577 20.928 115.905 18.9547 115.905 16.288C115.905 13.6213 116.609 11.552 118.017 10.08C119.425 8.608 121.217 7.872 123.393 7.872C125.142 7.872 126.614 8.39467 127.809 9.44C129.004 10.4853 129.601 12.032 129.601 14.08C129.601 14.1867 129.601 14.2933 129.601 14.4H118.177C118.113 14.976 118.081 15.5733 118.081 16.192ZM127.425 14.144C127.404 12.096 127.009 10.5813 126.241 9.6C125.473 8.61867 124.481 8.128 123.265 8.128C122.049 8.128 120.961 8.66133 120.001 9.728C119.062 10.7947 118.465 12.2667 118.209 14.144H127.425ZM134.169 24C133.294 24 132.622 23.808 132.153 23.424C131.705 23.04 131.47 22.656 131.449 22.272L131.417 21.728V8H133.657V21.728C133.657 22.3467 133.774 22.8267 134.009 23.168C134.265 23.488 134.51 23.6587 134.745 23.68L135.129 23.744H136.121V24H134.169ZM131.609 4.416C131.353 4.16 131.225 3.84 131.225 3.456C131.225 3.072 131.353 2.752 131.609 2.496C131.865 2.21866 132.185 2.08 132.569 2.08C132.953 2.08 133.273 2.21866 133.529 2.496C133.806 2.752 133.945 3.072 133.945 3.456C133.945 3.84 133.806 4.16 133.529 4.416C133.273 4.672 132.953 4.8 132.569 4.8C132.185 4.8 131.865 4.672 131.609 4.416ZM138.526 8.256V8H139.198V4.8H141.438V8H146.334V8.256H141.438V19.904C141.438 21.2907 141.588 22.2933 141.886 22.912C142.206 23.5307 142.857 23.84 143.838 23.84C144.841 23.84 145.854 23.6373 146.878 23.232L146.974 23.488C145.908 23.8933 144.681 24.096 143.294 24.096C141.929 24.096 140.905 23.8187 140.222 23.264C139.54 22.688 139.198 21.5573 139.198 19.872V8.256H138.526Z" fill="black"/>
</svg>
