<svg width="50" height="50" viewBox="0 0 50 50" fill="none" xmlns="http://www.w3.org/2000/svg">
<path d="M45.959 17.4531L32.5449 4.03906C32.2547 3.7488 31.9102 3.51856 31.531 3.36146C31.1518 3.20437 30.7454 3.12352 30.335 3.12352C29.9245 3.12352 29.5181 3.20437 29.1389 3.36146C28.7597 3.51856 28.4152 3.7488 28.125 4.03906L22.5703 9.59375L11.2422 13.8438C10.7275 14.0353 10.2723 14.3591 9.92253 14.7826C9.57279 15.206 9.34082 15.7142 9.25001 16.2559L5.19337 40.5918C5.16617 40.755 5.19148 40.9226 5.26564 41.0704C5.33979 41.2183 5.45898 41.3388 5.60601 41.4146C5.75305 41.4904 5.92036 41.5176 6.08383 41.4922C6.2473 41.4669 6.39849 41.3902 6.51563 41.2734L17.6484 30.1406C17.2957 29.4068 17.1415 28.5933 17.2012 27.7813C17.2738 26.7823 17.6645 25.8328 18.316 25.072C18.9676 24.3113 19.8457 23.7792 20.8216 23.5538C21.7975 23.3284 22.82 23.4216 23.7392 23.8197C24.6583 24.2177 25.4258 24.8997 25.9291 25.7657C26.4324 26.6317 26.6451 27.6361 26.5359 28.6318C26.4268 29.6274 26.0016 30.562 25.3227 31.2984C24.6438 32.0348 23.7468 32.5344 22.7633 32.7239C21.7798 32.9135 20.7614 32.783 19.8574 32.3516L8.72462 43.4844C8.60781 43.6015 8.5312 43.7527 8.50582 43.9162C8.48045 44.0797 8.50762 44.247 8.58342 44.394C8.65922 44.541 8.77974 44.6602 8.92761 44.7344C9.07549 44.8085 9.24308 44.8338 9.40626 44.8066L33.7442 40.75C34.285 40.6599 34.7925 40.4291 35.2159 40.0808C35.6393 39.7325 35.9636 39.2789 36.1563 38.7656L40.4082 27.4238L45.959 21.875C46.2493 21.5848 46.4795 21.2403 46.6366 20.8611C46.7937 20.4819 46.8745 20.0755 46.8745 19.665C46.8745 19.2546 46.7937 18.8482 46.6366 18.469C46.4795 18.0898 46.2493 17.7453 45.959 17.4551V17.4531ZM39.0625 24.3516L25.6485 10.9375L30.336 6.25L43.75 19.6641L39.0625 24.3516Z" fill="black"/>
</svg>
